<?xml version="1.0" encoding="UTF-8" standalone="no"?>
<svg version="1.1" xmlns="http://www.w3.org/2000/svg" xmlns:xlink="http://www.w3.org/1999/xlink" width="388.587" height="273.225">
	<path id="dp_path001" fill="grey" stroke="none" stroke-width="0" d="M 343.049,0 L 45.5373,0 C 20.4267,0 0,20.4267 0,45.5373 L 0,227.688 C 0,252.797 20.4267,273.224 45.5373,273.224 L 343.049,273.224 C 368.159,273.224 388.585,252.797 388.585,227.688 L 388.585,45.5373 C 388.585,20.4267 368.159,0 343.049,0 Z M 45.5373,30.3587 L 343.049,30.3587 C 351.417,30.3587 358.227,37.168 358.227,45.5373 L 358.227,60.716 L 30.3587,60.716 L 30.3587,45.5373 C 30.3587,37.168 37.1693,30.3587 45.5373,30.3587 Z M 343.049,242.865 L 45.5373,242.865 C 37.1693,242.865 30.3587,236.056 30.3587,227.688 L 30.3587,91.0747 L 358.227,91.0747 L 358.227,227.688 C 358.227,236.056 351.417,242.865 343.049,242.865 Z M 335.459,201.123 C 335.459,211.604 326.965,220.097 316.485,220.097 S 297.511,211.604 297.511,201.123 S 306.004,182.149 316.485,182.149 S 335.459,190.643 335.459,201.123 Z M 282.332,201.123 C 282.332,211.604 273.839,220.097 263.359,220.097 S 244.384,211.604 244.384,201.123 S 252.877,182.149 263.359,182.149 S 282.332,190.643 282.332,201.123 Z "/>
</svg>