<?xml version="1.0" encoding="UTF-8" standalone="no"?>
<svg version="1.1" xmlns="http://www.w3.org/2000/svg" xmlns:xlink="http://www.w3.org/1999/xlink" width="411.815" height="284.005">
	<path id="dp_path001" transform="matrix(1,0,0,1,-29.0707,-28.9413)" fill="none" stroke="grey" stroke-width="28" d="M 366.481,43.4627 C 296.897,42.8733 226.712,42.8573 156.891,43.0653 C 133.539,43.1347 110.145,42.98 86.8227,43.444 C 80.8467,43.5627 74.8707,43.6827 68.8947,43.804 C 66.3867,43.8547 63.492,43.5093 61.0307,43.9627 C 57.4613,44.62 53.2373,46.8573 50.616,49.1467 C 47.644,51.7413 45.4707,55.656 44.7947,59.0813 C 44.2587,61.8 44.5093,64.9253 44.372,67.696 C 43.9733,75.7267 43.8707,83.9493 43.7093,92.0867 C 43.1893,118.331 43.312,144.884 43.164,171.259 C 43.0253,195.992 43.0373,220.699 43.176,245.38 C 43.224,253.923 43.3573,262.424 43.6547,270.892 C 43.76,273.891 43.356,277.439 43.9813,280.365 C 45.5933,287.911 51.0747,295.808 59.1,297.149 C 65.4213,298.205 74.0747,297.876 80.7293,298.008 C 93.7373,298.267 106.745,298.491 119.843,298.601 C 160.883,298.948 202.244,298.893 243.477,298.945 C 280.133,298.992 316.692,298.86 353.291,298.751 C 366.037,298.712 378.708,298.553 391.359,298.301 C 396.483,298.199 403.495,298.805 408.384,297.963 C 412.053,297.331 416.387,295.271 419.148,292.944 C 422.137,290.425 424.428,286.691 425.168,282.844 C 425.693,280.116 425.453,277.007 425.591,274.229 C 425.988,266.199 426.092,257.976 426.253,249.839 C 426.773,223.595 426.651,197.043 426.799,170.668 C 426.937,145.935 426.925,121.227 426.787,96.5467 C 426.739,88.004 426.605,79.5027 426.308,71.0347 C 426.203,68.036 426.607,64.488 425.981,61.5613 C 425.192,57.868 423.381,53.5933 420.963,50.796 C 418.435,47.872 414.72,45.42 410.863,44.776 C 407.375,44.1933 403.547,44.4173 400.013,44.244 C 388.927,43.7 377.644,43.6987 366.481,43.4627 Z M 337.213,99.244 C 331.18,97.1333 325.216,95.4973 318.888,95.7187 C 286.257,96.86 266.347,133.671 283.953,161.699 C 288.573,169.053 295.645,175.301 304.033,178.792 C 312.492,182.312 321.943,182.887 330.369,180.86 C 362.375,173.163 372.976,133.873 351.823,109.884 C 347.644,105.145 342.675,102.111 337.213,99.244 Z M 202.805,109.105 C 199.555,107.959 196.125,107.428 192.433,107.247 C 185.696,106.916 178.881,107.159 172.136,107.115 C 157.511,107.019 142.904,107.009 128.308,107.119 C 120.547,107.177 112.808,107.272 105.051,107.581 C 103,107.663 100.043,107.233 98.104,107.863 C 95.504,108.707 92.636,111.541 90.9293,113.617 C 82.004,124.473 84.436,141.907 97.352,147.899 C 100.503,149.36 104.152,149.517 107.521,149.68 C 113.664,149.976 119.875,149.764 126.024,149.804 C 138.809,149.887 151.588,149.943 164.372,149.86 C 173.388,149.801 194.288,150.995 201.471,148.076 C 209.961,144.625 214.192,134.465 213.507,125.655 C 212.931,118.249 208.668,112.572 202.805,109.105 Z M 198.132,192.793 C 174.476,191.965 151.155,191.931 127.496,192.108 C 120.7,192.159 103.776,191.281 98.2973,193.264 C 96.5213,193.907 94.7133,195.387 93.3493,196.508 C 84.3147,203.936 81.928,219.347 90.5613,228.363 C 93.8093,231.755 98.6413,233.425 103.212,234.179 C 109.336,235.188 115.631,234.875 121.805,234.884 C 130.829,234.897 139.855,234.916 148.879,234.929 C 159.573,234.945 170.256,234.936 181.001,234.812 C 186.848,234.744 195.899,235.633 200.911,233.463 C 212.597,228.401 217.24,209.721 209.719,199.803 C 206.917,196.109 202.751,194.153 198.132,192.793 Z M 337.395,201.213 C 333.125,200.736 328.8,199.975 324.513,199.755 C 312.036,199.115 298.54,201.024 287.08,205.413 C 277.856,208.947 268.805,216.9 267.376,226.444 C 266.9,229.62 267.516,233.023 270.015,235.62 C 275.893,241.731 289.483,243.596 298.349,244.884 C 317.828,247.713 338.495,247.369 357.469,241.603 C 361.597,240.348 365.572,239.171 368.837,236.707 C 372.643,233.835 374.272,229.505 372.895,225.077 C 368.155,209.837 352.232,204.585 337.395,201.213 Z "/>
</svg>