<?xml version="1.0" encoding="UTF-8" standalone="no"?>
<svg version="1.1" xmlns="http://www.w3.org/2000/svg" xmlns:xlink="http://www.w3.org/1999/xlink" width="897.783" height="612.004">
	<path id="dp_path001" fill="#1a1919" stroke="none" stroke-width="0" d="M 812.888,0 L 54.192,0 C 24.3333,0 0,24.9813 0,55.636 L 0,556.365 C 0,587.021 24.3333,612.003 54.192,612.003 L 812.888,612.003 C 842.747,612.003 867.08,587.021 867.08,556.365 L 867.08,55.636 C 867.08,24.9813 842.747,0 812.888,0 Z M 812.888,584.184 L 812.888,556.365 L 54.192,556.365 L 54.192,55.636 L 812.888,55.636 L 812.888,556.365 C 812.888,556.365 812.888,556.365 812.943,556.365 Z "/>
	<g id="dp_dp002" transform="matrix(1,0,0,1.02664,98.2692,423.321)">
		<path id="dp_path003" fill="#1a1919" fill-rule="evenodd" stroke="none" stroke-width="0" d="M 121.976,-174.692 C 107.8,-174.692 96.736,-168.877 88.812,-157.273 C 80.8627,-145.645 76.8747,-129.616 76.8747,-109.215 C 76.8747,-66.764 93.032,-45.5387 125.295,-45.5387 C 135.071,-45.5387 144.513,-46.9013 153.672,-49.6027 C 162.805,-52.3307 172.016,-55.5973 181.277,-59.4053 L 181.277,-9.108 C 162.883,-0.977333 142.069,3.088 118.836,3.088 C 85.5453,3.088 60.048,-6.56 42.296,-25.856 C 24.544,-45.1773 15.6933,-73.0667 15.6933,-109.575 C 15.6933,-132.395 19.9907,-152.437 28.584,-169.727 C 37.176,-187.041 49.5253,-200.316 65.6827,-209.629 C 81.8147,-218.917 100.776,-223.575 122.593,-223.575 C 146.443,-223.575 169.212,-218.403 190.925,-208.035 L 172.659,-161.133 C 164.529,-164.941 156.373,-168.157 148.244,-170.781 C 140.088,-173.38 131.34,-174.692 121.976,-174.692 Z "/>
		<path id="dp_path004" fill="#1a1919" fill-rule="evenodd" stroke="none" stroke-width="0" d="M 361.821,-220.487 L 428.456,-220.487 L 356.187,0 L 286.104,0 L 214.144,-220.487 L 281.088,-220.487 L 311.112,-108.725 C 317.364,-83.8987 320.785,-66.6093 321.377,-56.8587 C 322.072,-63.8827 323.487,-72.6813 325.597,-83.2547 C 327.707,-93.804 329.584,-102.088 331.18,-108.133 Z "/>
		<path id="dp_path005" fill="#1a1919" fill-rule="evenodd" stroke="none" stroke-width="0" d="M 589.96,-220.487 L 656.595,-220.487 L 584.325,0 L 514.243,0 L 442.283,-220.487 L 509.227,-220.487 L 539.251,-108.725 C 545.503,-83.8987 548.924,-66.6093 549.516,-56.8587 C 550.211,-63.8827 551.625,-72.6813 553.736,-83.2547 C 555.845,-93.804 557.723,-102.088 559.319,-108.133 Z "/>
	</g>
</svg>