<?xml version="1.0" encoding="UTF-8" standalone="no"?>
<svg version="1.1" xmlns="http://www.w3.org/2000/svg" xmlns:xlink="http://www.w3.org/1999/xlink" width="438.849" height="310.148">
	<path id="dp_path001" fill="grey" stroke="none" stroke-width="0" d="M 380.172,0 L 58.6773,0 C 26.3227,0 0,26.3213 0,58.6773 L 0,251.471 C 0,283.825 26.3227,310.147 58.6773,310.147 L 380.172,310.147 C 412.527,310.147 438.848,283.825 438.848,251.471 L 438.848,58.6773 C 438.848,26.3213 412.527,0 380.172,0 Z M 410.228,251.469 C 410.228,268.044 396.745,281.528 380.172,281.528 L 58.6773,281.528 C 42.104,281.528 28.6213,268.044 28.6213,251.469 L 28.6213,102.735 L 410.228,102.735 Z M 410.228,74.1147 L 28.62,74.1147 L 28.62,58.6773 C 28.62,42.104 42.104,28.6213 58.676,28.6213 L 380.171,28.6213 C 396.744,28.6213 410.227,42.104 410.227,58.6773 L 410.227,74.1147 Z "/>
	<path id="dp_path002" transform="matrix(1,0,0,1,58.7867,154.721)" fill="grey" stroke="none" stroke-width="0" d="M 0,0 C 33.7253,0 67.4507,0 101.173,0 C 101.173,9.54133 101.173,19.08 101.173,28.62 C 67.448,28.62 33.724,28.62 0,28.62 C 0,19.0787 0,9.53867 0,0 Z "/>
	<path id="dp_path003" transform="matrix(1,0,0,1,58.7867,207.268)" fill="grey" stroke="none" stroke-width="0" d="M 0,0 C 44.5213,0 89.0427,0 133.563,0 C 133.563,9.54133 133.563,19.0813 133.563,28.6213 C 89.0413,28.6213 44.52,28.6213 0,28.6213 C 0,19.08 0,9.54 0,0 Z "/>
</svg>