<?xml version="1.0" encoding="UTF-8" standalone="no"?>
<svg version="1.1" xmlns="http://www.w3.org/2000/svg" xmlns:xlink="http://www.w3.org/1999/xlink" width="645.008" height="439.691">
	<path id="dp_path001" fill="grey" stroke="none" stroke-width="0" d="M 584.015,0 L 38.9333,0 C 17.4827,0 0,17.948 0,39.972 L 0,399.717 C 0,421.743 17.4827,439.689 38.9333,439.689 L 584.015,439.689 C 605.467,439.689 622.948,421.743 622.948,399.717 L 622.948,39.972 C 622.948,17.948 605.467,0 584.015,0 Z M 584.015,419.704 L 584.015,399.717 L 38.9333,399.717 L 38.9333,39.972 L 584.015,39.972 L 584.015,399.717 C 584.015,399.717 584.015,399.717 584.053,399.717 Z "/>
	<g id="dp_dp002" transform="matrix(1,0,0,1.02664,70.6009,304.133)">
		<path id="dp_path003" fill="grey" fill-rule="evenodd" stroke="none" stroke-width="0" d="M 87.632,-125.507 C 77.448,-125.507 69.5,-121.329 63.8067,-112.993 C 58.0947,-104.637 55.2307,-93.1227 55.2307,-78.464 C 55.2307,-47.9653 66.8387,-32.7173 90.0173,-32.7173 C 97.0413,-32.7173 103.824,-33.696 110.405,-35.6373 C 116.967,-37.596 123.584,-39.944 130.239,-42.68 L 130.239,-6.544 C 117.023,-0.702667 102.068,2.21867 85.3773,2.21867 C 61.4587,2.21867 43.1413,-4.71333 30.388,-18.576 C 17.6333,-32.4573 11.2747,-52.4947 11.2747,-78.724 C 11.2747,-95.1187 14.3627,-109.517 20.536,-121.939 C 26.7093,-134.379 35.5813,-143.916 47.1893,-150.608 C 58.7787,-157.28 72.4013,-160.625 88.076,-160.625 C 105.211,-160.625 121.569,-156.911 137.169,-149.461 L 124.047,-115.765 C 118.205,-118.501 112.345,-120.812 106.505,-122.697 C 100.645,-124.564 94.3613,-125.507 87.632,-125.507 Z "/>
		<path id="dp_path004" fill="grey" fill-rule="evenodd" stroke="none" stroke-width="0" d="M 259.949,-158.408 L 307.823,-158.408 L 255.901,0 L 205.551,0 L 153.851,-158.408 L 201.947,-158.408 L 223.517,-78.1133 C 228.008,-60.276 230.467,-47.8547 230.892,-40.8493 C 231.391,-45.896 232.408,-52.2173 233.924,-59.8147 C 235.439,-67.3933 236.788,-73.344 237.935,-77.688 Z "/>
		<path id="dp_path005" fill="grey" fill-rule="evenodd" stroke="none" stroke-width="0" d="M 423.855,-158.408 L 471.728,-158.408 L 419.807,0 L 369.456,0 L 317.756,-158.408 L 365.852,-158.408 L 387.423,-78.1133 C 391.913,-60.276 394.372,-47.8547 394.797,-40.8493 C 395.296,-45.896 396.313,-52.2173 397.829,-59.8147 C 399.344,-67.3933 400.693,-73.344 401.84,-77.688 Z "/>
	</g>
</svg>