<?xml version="1.0" encoding="UTF-8" standalone="no"?>
<svg version="1.1" xmlns="http://www.w3.org/2000/svg" xmlns:xlink="http://www.w3.org/1999/xlink" width="577.381" height="370.609">
	<path id="dp_path001" fill="grey" stroke="none" stroke-width="0" d="M 577.38,42.6813 C 577.38,19.1107 553.996,0 525.152,0 L 52.228,0 C 23.3853,0 0,19.112 0,42.6813 L 0,88.4787 L 577.38,88.4787 Z "/>
	<path id="dp_path002" transform="matrix(1,0,0,1,0,159.259)" fill="grey" stroke="none" stroke-width="0" d="M 577.38,168.669 L 577.38,0 L 0,0 L 0,168.669 C 0,192.24 23.3853,211.349 52.228,211.349 L 525.149,211.349 C 553.996,211.349 577.38,192.237 577.38,168.669 Z M 129.305,121.685 L 45.1133,121.685 L 45.1133,89.6733 L 129.305,89.6733 Z M 255.609,121.685 L 171.404,121.685 L 171.404,89.6733 L 255.612,89.6733 L 255.612,121.685 Z M 381.927,121.685 L 297.719,121.685 L 297.719,89.6733 L 381.939,89.6733 L 381.939,121.685 Z M 508.216,121.685 L 424.021,121.685 L 424.021,89.6733 L 508.216,89.6733 Z "/>
</svg>